name rise37.2698peak67.6939fall79.5734.mot
datacolumns 19
datarows 14
range 8.65996900000000 8.68163500000000
endheader
time	ground_force1_vx	ground_force1_vy	ground_force1_vz	ground_force1_px	ground_force1_py	ground_force1_pz	ground_force2_vx	ground_force2_vy	ground_force2_vz	ground_force2_px	ground_force2_py	ground_force2_pz	ground_torque1_x	ground_torque1_y	ground_torque1_z	ground_torque2_x	ground_torque2_y	ground_torque2_z	
8.65996900000000	-40.89616400000000	798.86362699999995	51.50218500000000	0.11526400000000	0.00000000000000	0.09169200000000	-5.12943400000000	21.58425300000000	4.39727900000000	0.00000000000000	0.00000000000000	0.00000000000000	0.00000000000000	18.66776300000000	0.00000000000000	0.00000000000000	1.19593700000000	0.00000000000000	
8.66163400000000	-41.32483600000000	797.37448400000005	51.36720600000000	0.11464000000000	0.00000000000000	0.09164200000000	-6.21633100000000	27.31620400000000	5.43062100000000	0.33457600000000	0.00000000000000	-0.06841800000000	0.00000000000000	18.61522700000000	0.00000000000000	0.00000000000000	2.88469500000000	0.00000000000000	
8.66329900000000	-41.76460000000000	795.78808200000003	51.21138500000000	0.11402500000000	0.00000000000000	0.09158800000000	-7.27959600000000	33.35702400000000	6.47817200000000	0.34032500000000	0.00000000000000	-0.06842600000000	0.00000000000000	18.56196800000000	0.00000000000000	0.00000000000000	3.50594200000000	0.00000000000000	
8.66496500000000	-42.21584300000000	794.10270100000002	51.03448600000000	0.11341800000000	0.00000000000000	0.09153100000000	-8.27995400000000	39.57530300000000	7.50854200000000	0.34555400000000	0.00000000000000	-0.06846300000000	0.00000000000000	18.50807000000000	0.00000000000000	0.00000000000000	4.13442500000000	0.00000000000000	
8.66663600000000	-42.67891900000000	792.31661099999997	50.83630800000000	0.11281900000000	0.00000000000000	0.09147100000000	-9.18189900000000	45.84480100000000	8.49250700000000	0.35032200000000	0.00000000000000	-0.06852400000000	0.00000000000000	18.45361100000000	0.00000000000000	0.00000000000000	4.75309300000000	0.00000000000000	
8.66830400000000	-43.15413800000000	790.42807600000003	50.61668700000000	0.11222700000000	0.00000000000000	0.09140700000000	-9.95602300000000	52.05381800000000	9.40498900000000	0.35467800000000	0.00000000000000	-0.06861000000000	0.00000000000000	18.39866400000000	0.00000000000000	0.00000000000000	5.34661800000000	0.00000000000000	
8.66997300000000	-43.64176900000000	788.43534999999997	50.37549800000000	0.11164000000000	0.00000000000000	0.09134000000000	-10.58060600000000	58.11225900000000	10.22646300000000	0.35866300000000	0.00000000000000	-0.06871600000000	0.00000000000000	18.34330000000000	0.00000000000000	0.00000000000000	5.90233600000000	0.00000000000000	
8.67163500000000	-44.14203100000000	786.33668200000000	50.11265100000000	0.11106000000000	0.00000000000000	0.09127000000000	-11.04234600000000	63.95594000000000	10.94371300000000	0.36231400000000	0.00000000000000	-0.06884100000000	0.00000000000000	18.28758200000000	0.00000000000000	0.00000000000000	6.41085000000000	0.00000000000000	
8.67330100000000	-44.65509300000000	784.13030900000001	49.82809600000000	0.11048400000000	0.00000000000000	0.09119600000000	-11.33629900000000	69.54809400000001	11.54996500000000	0.36566200000000	0.00000000000000	-0.06898400000000	0.00000000000000	18.23156900000000	0.00000000000000	0.00000000000000	6.86626600000000	0.00000000000000	
8.67496500000000	-45.18107000000000	781.81446300000005	49.52181800000000	0.10991300000000	0.00000000000000	0.09111900000000	-11.46515000000000	74.87838000000001	12.04445800000000	0.36873400000000	0.00000000000000	-0.06914400000000	0.00000000000000	18.17531300000000	0.00000000000000	0.00000000000000	7.26610100000000	0.00000000000000	
8.67663100000000	-45.72001700000000	779.38736500000005	49.19384300000000	0.10934500000000	0.00000000000000	0.09103900000000	-11.43796800000000	79.95988300000000	12.43160300000000	0.37155300000000	0.00000000000000	-0.06931800000000	0.00000000000000	18.11886100000000	0.00000000000000	0.00000000000000	7.61092600000000	0.00000000000000	
8.67830600000000	-46.27193100000000	776.84723299999996	48.84423300000000	0.10878000000000	0.00000000000000	0.09095500000000	-11.26865800000000	84.82470400000000	12.71985700000000	0.37414100000000	0.00000000000000	-0.06950700000000	0.00000000000000	18.06225400000000	0.00000000000000	0.00000000000000	7.90380800000000	0.00000000000000	
8.67996900000000	-46.83674200000000	774.19227599999999	48.47308700000000	0.10821800000000	0.00000000000000	0.09086900000000	-10.97428000000000	89.51875300000000	12.92046000000000	0.37651500000000	0.00000000000000	-0.06970800000000	0.00000000000000	18.00552500000000	0.00000000000000	0.00000000000000	8.14965100000000	0.00000000000000	
8.68163500000000	-47.41431200000000	771.42070100000001	48.08054200000000	0.10765700000000	0.00000000000000	0.09077900000000	-10.57339100000000	94.09630100000000	13.04616300000000	0.37869400000000	0.00000000000000	-0.06992100000000	0.00000000000000	17.94869900000000	0.00000000000000	0.00000000000000	8.35449400000000	0.00000000000000	
